<?xml version="1.0" encoding="UTF-8"?><svg id="ex" xmlns="http://www.w3.org/2000/svg" viewBox="0 0 86 104"><path fill="#D8D8D8" d="M83.21,22.5l-29.17,29.17c-.18.18-.18.48,0,.66,4.13,4.06,25.52,24.87,29.24,29.2.35.41.55.93.55,1.47l.04,17.84c0,1.01-1.28,1.56-2.01.82l-38.53-38.57c-.18-.18-.47-.18-.65,0L4.14,101.66c-.73.73-2.01.18-2.01-.82l.04-17.84c0-.54.19-1.06.55-1.47,3.72-4.33,25.11-25.14,29.24-29.2.18-.18.18-.47,0-.66L2.79,22.5c-.2-.2-.36-.43-.47-.68-.13-.29-.19-.6-.19-.92V3.16c0-1.01,1.28-1.56,2.01-.82l38.53,38.57c.18.18.47.18.65,0L81.86,2.34c.73-.73,2.01-.18,2.01.82v17.74c0,.32-.07.63-.19.92-.06.13-.12.25-.2.36-.08.11-.17.22-.27.32Z"/></svg>
